HIERARCHY
ROOT Pelvis
{
	OFFSET 0.000000 0.000000 0.000000
	CHANNELS 6 Xposition Yposition Zposition Xrotation Yrotation Zrotation
	JOINT LeftUpLeg_virtual
	{
		OFFSET 0.000000 0.000000 0.000000
		CHANNELS 3 Xrotation Yrotation Zrotation
		JOINT LeftUpLeg
		{
			OFFSET 18.735201 -5.666702 -4.541200
			CHANNELS 3 Xrotation Yrotation Zrotation
			JOINT LeftLeg
			{
				OFFSET -0.021200 -31.938179 0.493100
				CHANNELS 3 Xrotation Yrotation Zrotation
				JOINT LeftFoot
				{
					OFFSET 0.021200 -31.938179 -4.336299
					CHANNELS 3 Xrotation Yrotation Zrotation
					JOINT LeftToeBase
					{
						OFFSET 0.943001 -26.722000 15.023500
						CHANNELS 3 Xrotation Yrotation Zrotation
						End Site
						{
							OFFSET 0 0 0
						}
					}
				}
			}
		}
	}
	JOINT RightUpLeg_virtual
	{
		OFFSET 0.000000 0.000000 0.000000
		CHANNELS 3 Xrotation Yrotation Zrotation
		JOINT RightUpLeg
		{
			OFFSET -18.735201 -5.666702 -4.541200
			CHANNELS 3 Xrotation Yrotation Zrotation
			JOINT RightLeg
			{
				OFFSET 0.018946 -31.938133 0.493100
				CHANNELS 3 Xrotation Yrotation Zrotation
				JOINT RightFoot
				{
					OFFSET -0.018946 -31.938126 -4.336299
					CHANNELS 3 Xrotation Yrotation Zrotation
					JOINT RightToeBase
					{
						OFFSET -0.943001 -26.722004 15.023500
						CHANNELS 3 Xrotation Yrotation Zrotation
						End Site
						{
							OFFSET 0 0 0
						}
					}
				}
			}
		}
	}
	JOINT Hips_virtual
	{
		OFFSET 0.000000 0.000000 0.000000
		CHANNELS 3 Xrotation Yrotation Zrotation
		JOINT Hips
		{
			OFFSET -0.000000 -0.000000 -0.000000
			CHANNELS 3 Xrotation Yrotation Zrotation
			JOINT Spine
			{
				OFFSET 0.000000 10.199997 -0.299500
				CHANNELS 3 Xrotation Yrotation Zrotation
				JOINT Spine1
				{
					OFFSET 0.000000 11.900002 -1.516600
					CHANNELS 3 Xrotation Yrotation Zrotation
					JOINT Spine2
					{
						OFFSET 0.000000 13.600006 -2.842500
						CHANNELS 3 Xrotation Yrotation Zrotation
						JOINT Neck_virtual
						{
							OFFSET 0.000000 0.000000 0.000000
							CHANNELS 3 Xrotation Yrotation Zrotation
							JOINT Neck
							{
								OFFSET 0.000000 9.624100 -2.890100
								CHANNELS 3 Xrotation Yrotation Zrotation
								JOINT Head
								{
									OFFSET 0.000000 14.068802 -1.351900
									CHANNELS 3 Xrotation Yrotation Zrotation
									End Site
									{
										OFFSET 0 0 0
									}
								}
							}
						}
						JOINT LeftShoulder_virtual
						{
							OFFSET 0.000000 0.000000 0.000000
							CHANNELS 3 Xrotation Yrotation Zrotation
							JOINT LeftShoulder
							{
								OFFSET 15.263000 10.923401 -0.547700
								CHANNELS 3 Xrotation Yrotation Zrotation
								JOINT LeftArm
								{
									OFFSET 25.438599 -2.830597 -13.032500
									CHANNELS 3 Xrotation Yrotation Zrotation
									JOINT LeftForeArm
									{
										OFFSET 29.960503 0.000000 0.000000
										CHANNELS 3 Xrotation Yrotation Zrotation
										JOINT LeftHand
										{
											OFFSET 27.849251 0.000000 0.000000
											CHANNELS 3 Xrotation Yrotation Zrotation
											End Site
											{
												OFFSET 0 0 0
											}
										}
									}
								}
							}
						}
						JOINT RightShoulder_virtual
						{
							OFFSET 0.000000 0.000000 0.000000
							CHANNELS 3 Xrotation Yrotation Zrotation
							JOINT RightShoulder
							{
								OFFSET -15.263000 10.923401 -0.547700
								CHANNELS 3 Xrotation Yrotation Zrotation
								JOINT RightArm
								{
									OFFSET -25.438599 -2.830597 -13.032500
									CHANNELS 3 Xrotation Yrotation Zrotation
									JOINT RightForeArm
									{
										OFFSET -29.960503 0.000000 0.000000
										CHANNELS 3 Xrotation Yrotation Zrotation
										JOINT RightHand
										{
											OFFSET -27.849251 0.000000 0.000000
											CHANNELS 3 Xrotation Yrotation Zrotation
											End Site
											{
												OFFSET 0 0 0
											}
										}
									}
								}
							}
						}
					}
				}
			}
		}
	}
}
MOTION
Frames: 6
Frame Time: 0.03333333
0.324144 44.699585 0.161850 0.000000 0.000000 0.000000 0.609056 -23.910846 9.564919 -87.562335 -21.273338 50.454307 74.991550 4.075793 -6.067871 36.972473 -3.088829 -13.560972 0.000000 0.000000 0.000000 0.609056 -23.910846 9.564919 -22.595166 2.425611 -20.758661 103.518299 12.609158 -0.364534 29.332719 5.104737 28.747566 0.000000 0.000000 0.000000 0.609056 -23.910846 9.564919 -0.000000 -0.000001 -0.000001 2.848115 -1.655074 -6.209306 2.227983 -1.286567 -3.027762 0.000000 0.000000 0.000000 2.233816 -1.285667 -3.025124 -1.563945 1.339769 1.150766 0.000000 0.000000 0.000000 2.233816 -1.285667 -3.025124 0.452721 1.693816 1.739611 -1.798692 -11.700847 -58.798667 -0.000077 -83.306724 -0.000044 0.000000 0.000000 0.000000 2.233816 -1.285667 -3.025124 5.136812 17.382615 7.477152 14.034095 22.826745 31.042281 179.999991 58.256043 179.999991 0.000000 0.000000 0.000000 
0.312176 44.748932 0.202229 0.000000 0.000000 0.000000 0.668220 -23.838433 9.574365 -87.568305 -21.317379 50.368328 75.005695 4.130652 -6.157827 36.934716 -3.061946 -13.461055 0.000000 0.000000 0.000000 0.668220 -23.838433 9.574365 -22.793116 2.416034 -20.743626 103.724926 12.396956 -0.329753 29.203505 5.032001 28.532128 0.000000 0.000000 0.000000 0.668220 -23.838433 9.574365 0.000001 0.000001 -0.000000 2.846867 -1.679625 -6.217858 2.223864 -1.290194 -3.038302 0.000000 0.000000 0.000000 2.230373 -1.288404 -3.035256 -1.533446 1.341770 1.158237 0.000000 0.000000 0.000000 2.230373 -1.288404 -3.035256 0.506470 1.585641 1.768911 -1.905201 -11.648055 -58.840591 -0.000156 -83.445937 -0.000153 0.000000 0.000000 0.000000 2.230373 -1.288404 -3.035256 5.163598 17.463964 7.466052 14.080605 22.520694 31.066829 179.999991 58.113333 179.999991 0.000000 0.000000 0.000000 
0.296506 44.788910 0.219315 0.000000 0.000000 0.000000 0.712847 -23.799555 9.589841 -87.507564 -21.363169 50.315111 74.990471 4.197692 -6.244885 36.913054 -3.054928 -13.425727 0.000000 0.000000 0.000000 0.712847 -23.799555 9.589841 -22.922316 2.407005 -20.734974 103.861195 12.222034 -0.313524 29.090763 4.986142 28.423755 0.000000 0.000000 0.000000 0.712847 -23.799555 9.589841 0.000000 0.000000 0.000000 2.860660 -1.702952 -6.229740 2.230086 -1.293039 -3.049935 0.000000 0.000000 0.000000 2.235820 -1.290963 -3.046373 -1.507751 1.350298 1.154898 0.000000 0.000000 0.000000 2.235820 -1.290963 -3.046373 0.530838 1.548088 1.698934 -2.011593 -11.548416 -58.783402 0.000269 -83.644149 0.000289 0.000000 0.000000 0.000000 2.235820 -1.290963 -3.046373 5.178690 17.514113 7.436940 14.117867 22.346437 31.052147 179.999991 58.006905 180.000005 0.000000 0.000000 0.000000 
0.273847 44.818298 0.215981 0.000000 0.000000 0.000000 0.748722 -23.800863 9.623351 -87.370605 -21.396828 50.314264 74.942659 4.264367 -6.331030 36.899609 -3.071569 -13.472832 0.000000 0.000000 0.000000 0.748722 -23.800863 9.623351 -23.003760 2.418954 -20.729424 103.931813 12.110900 -0.308687 29.014978 4.964442 28.394109 0.000000 0.000000 0.000000 0.748722 -23.800863 9.623351 0.000000 -0.000001 0.000001 2.877827 -1.723821 -6.249895 2.242118 -1.294385 -3.067452 0.000000 0.000000 0.000000 2.247327 -1.293190 -3.063674 -1.484048 1.360819 1.149195 0.000000 0.000000 0.000000 2.247327 -1.293190 -3.063674 0.533404 1.559033 1.582765 -2.109734 -11.376571 -58.705838 0.000008 -83.880221 0.000024 0.000000 0.000000 0.000000 2.247327 -1.293190 -3.063674 5.188732 17.547033 7.437168 14.085634 22.272087 30.964297 -179.999991 58.006925 179.999991 0.000000 0.000000 0.000000 
0.245484 44.838112 0.203030 0.000000 0.000000 0.000000 0.774939 -23.816209 9.663488 -87.192856 -21.422928 50.351687 74.874255 4.318633 -6.424856 36.893537 -3.101641 -13.568888 0.000000 0.000000 0.000000 0.774939 -23.816209 9.663488 -23.055061 2.439680 -20.714488 103.957235 12.068452 -0.306655 28.972549 4.955272 28.395526 0.000000 0.000000 0.000000 0.774939 -23.816209 9.663488 0.000000 0.000001 0.000000 2.892107 -1.735143 -6.276616 2.254015 -1.294917 -3.087604 0.000000 0.000000 0.000000 2.258683 -1.295232 -3.083953 -1.464699 1.367999 1.154467 0.000000 0.000000 0.000000 2.258683 -1.295232 -3.083953 0.533449 1.569942 1.508527 -2.186856 -11.180674 -58.684418 0.000021 -84.079171 0.000058 0.000000 0.000000 0.000000 2.258683 -1.295232 -3.083953 5.196403 17.586088 7.510234 14.008884 22.211271 30.786866 -179.999978 58.074319 179.999978 0.000000 0.000000 0.000000 
0.215072 44.852379 0.190956 0.000000 0.000000 0.000000 0.781449 -23.823396 9.696386 -87.010517 -21.444475 50.396366 74.802108 4.358021 -6.522388 36.894667 -3.130326 -13.663162 0.000000 0.000000 0.000000 0.781449 -23.823396 9.696386 -23.078509 2.448302 -20.687675 103.961770 12.078566 -0.305464 28.939102 4.944432 28.390988 0.000000 0.000000 0.000000 0.781449 -23.823396 9.696386 0.000000 0.000002 0.000000 2.906865 -1.737870 -6.299418 2.266127 -1.295400 -3.102835 0.000000 0.000000 0.000000 2.270280 -1.297258 -3.099465 -1.453657 1.372460 1.164167 0.000000 0.000000 0.000000 2.270280 -1.297258 -3.099465 0.539273 1.564966 1.464617 -2.237655 -11.038663 -58.684569 0.000002 -84.201534 0.000025 0.000000 0.000000 0.000000 2.270280 -1.297258 -3.099465 5.204297 17.625119 7.617474 13.938721 22.162067 30.589333 -180.000005 58.142211 -179.999991 0.000000 0.000000 0.000000 
